# Blender v2.74 (sub 0) OBJ File: 'road.blend'
# www.blender.org
v -1.000000 0.000000 -1.000000
v 1.000000 0.000000 -1.000000
v -1.000000 0.000000 -0.916667
v 1.000000 0.000000 -0.916667
v -1.000000 0.000000 -0.572917
v 1.000000 0.000000 -0.572917
v -1.000000 0.000000 -0.486979
v 1.000000 0.000000 -0.486979
v 1.000000 0.032500 -0.916667
v 1.000000 0.032500 -1.000000
v -1.000000 0.032500 -1.000000
v -1.000000 0.032500 -0.916667
v 1.000000 0.032500 -0.572917
v -1.000000 0.032500 -0.572917
v 1.000000 0.032500 -0.486979
v -1.000000 0.032500 -0.486979
v 1.000000 0.020000 -0.572917
v 1.000000 0.020000 -0.916667
v -1.000000 0.020000 -0.572917
v -1.000000 0.020000 -0.916667
v -1.000000 0.000000 1.000000
v 1.000000 0.000000 1.000000
v -1.000000 0.000000 0.916667
v 1.000000 0.000000 0.916667
v -1.000000 0.000000 0.572917
v 1.000000 0.000000 0.572917
v -1.000000 0.000000 0.486979
v 1.000000 0.000000 0.486979
v 1.000000 0.032500 0.916667
v 1.000000 0.032500 1.000000
v -1.000000 0.032500 1.000000
v -1.000000 0.032500 0.916667
v 1.000000 0.032500 0.572917
v -1.000000 0.032500 0.572917
v 1.000000 0.032500 0.486979
v -1.000000 0.032500 0.486979
v 1.000000 0.020000 0.572917
v 1.000000 0.020000 0.916667
v -1.000000 0.020000 0.572917
v -1.000000 0.020000 0.916667
v 1.000000 0.000000 0.000000
v -1.000000 0.000000 0.000000
vt 0.896484 0.000000
vt 0.910156 0.000000
vt 0.910156 0.853516
vt 0.882812 0.853516
vt 0.868164 0.853516
vt 0.868164 0.000000
vt 0.974609 0.853516
vt 0.965820 0.853516
vt 0.965820 0.000000
vt 0.896484 0.853516
vt 0.882812 0.000000
vt 0.783203 0.000000
vt 0.819336 0.000000
vt 0.819336 0.853516
vt 0.709961 0.000000
vt 0.747070 0.000000
vt 0.747070 0.853516
vt 0.117188 0.888672
vt 0.103516 0.888672
vt 0.103516 0.853516
vt 0.938477 0.000000
vt 0.952148 0.000000
vt 0.952148 0.853516
vt 0.061523 0.889648
vt 0.047852 0.889648
vt 0.047852 0.853516
vt 0.145508 0.888672
vt 0.131836 0.888672
vt 0.131836 0.853516
vt 0.034180 0.889648
vt 0.034180 0.853516
vt 0.563477 0.000000
vt 0.709961 0.853516
vt 0.008789 1.000000
vt 0.000000 1.000000
vt 0.000000 0.853516
vt 0.991211 0.000000
vt 1.000000 0.000000
vt 1.000000 0.853516
vt 0.034180 1.000000
vt 0.025391 1.000000
vt 0.025391 0.853516
vt 0.208008 0.853516
vt 0.208008 0.000000
vt 0.416016 0.000000
vt 0.854492 0.853516
vt 0.854492 0.000000
vt 0.923828 0.000000
vt 0.923828 0.853516
vt 0.991211 0.853516
vt 0.982422 0.853516
vt 0.089844 0.888672
vt 0.089844 0.853516
vt 0.061523 0.853516
vt 0.076172 0.853516
vt 0.117188 0.853516
vt 0.076172 0.889648
vt 0.416016 0.853516
vt 0.008789 0.853516
vt 0.017578 0.853516
vt 0.974609 0.000000
vt 0.982422 0.000000
vt 0.017578 1.000000
vt 0.000000 0.000000
vt 0.783203 0.853516
vt 0.938477 0.853516
vt 0.145508 0.853516
vt 0.563477 0.853516
vt 0.089844 0.889648
vn 0.000000 0.000000 1.000000
vn 0.000000 0.000000 -1.000000
vn 0.000000 1.000000 0.000000
vn 1.000000 0.000000 0.000000
vn -1.000000 0.000000 0.000000
s off
f 4/1/1 9/2/1 12/3/1
f 1/4/2 11/5/2 10/6/2
f 3/7/2 20/8/2 18/9/2
f 5/10/2 14/4/2 13/11/2
f 9/12/3 10/13/3 11/14/3
f 15/15/3 13/16/3 14/17/3
f 2/18/4 10/19/4 9/20/4
f 8/21/1 15/22/1 16/23/1
f 7/24/5 16/25/5 14/26/5
f 3/27/5 12/28/5 11/29/5
f 6/25/4 13/30/4 15/31/4
f 17/32/3 18/15/3 20/33/3
f 5/34/5 19/35/5 20/36/5
f 6/37/1 17/38/1 19/39/1
f 4/40/4 18/41/4 17/42/4
f 42/43/3 41/44/3 8/45/3
f 32/46/2 29/47/2 24/6/2
f 30/48/1 31/49/1 21/3/1
f 38/37/1 40/50/1 23/51/1
f 33/9/1 34/8/1 25/23/1
f 31/14/3 30/13/3 29/47/3
f 34/17/3 33/16/3 35/12/3
f 29/52/4 30/53/4 22/20/4
f 36/49/2 35/48/2 28/21/2
f 34/24/5 36/54/5 27/55/5
f 31/18/5 32/56/5 23/29/5
f 35/57/4 33/55/4 26/53/4
f 40/58/3 38/45/3 37/32/3
f 40/34/5 39/59/5 25/60/5
f 39/7/2 37/61/2 26/62/2
f 37/63/4 38/60/4 24/42/4
f 28/64/3 41/44/3 42/43/3
f 3/10/1 4/1/1 12/3/1
f 2/11/2 1/4/2 10/6/2
f 4/61/2 3/7/2 18/9/2
f 6/1/2 5/10/2 13/11/2
f 12/65/3 9/12/3 11/14/3
f 16/33/3 15/15/3 14/17/3
f 4/56/4 2/18/4 9/20/4
f 7/66/1 8/21/1 16/23/1
f 5/54/5 7/24/5 14/26/5
f 1/67/5 3/27/5 11/29/5
f 8/26/4 6/25/4 15/31/4
f 19/68/3 17/32/3 20/33/3
f 3/59/5 5/34/5 20/36/5
f 5/50/1 6/37/1 19/39/1
f 6/31/4 4/40/4 17/42/4
f 7/58/3 42/43/3 8/45/3
f 23/5/2 32/46/2 24/6/2
f 22/2/1 30/48/1 21/3/1
f 24/62/1 38/37/1 23/51/1
f 26/22/1 33/9/1 25/23/1
f 32/46/3 31/14/3 29/47/3
f 36/65/3 34/17/3 35/12/3
f 24/19/4 29/52/4 22/20/4
f 27/66/2 36/49/2 28/21/2
f 25/57/5 34/24/5 27/55/5
f 21/28/5 31/18/5 23/29/5
f 28/69/4 35/57/4 26/53/4
f 39/68/3 40/58/3 37/32/3
f 23/63/5 40/34/5 25/60/5
f 25/51/2 39/7/2 26/62/2
f 26/41/4 37/63/4 24/42/4
f 27/36/3 28/64/3 42/43/3
